<svg xmlns="http://www.w3.org/2000/svg" viewBox="0 0 1400 720" width="1400" height="720" role="img" aria-labelledby="t d" font-family="'Open Sans','Noto Sans','Segoe UI',Roboto,'Helvetica Neue',Arial,sans-serif"><title id="t">After: PostgreSQL scaled out with Citus</title><desc id="d">The same architecture with PostgreSQL replaced by a Citus cluster. ThingsBoard writes attributes and latest values straight to four workers, each at normal load; the coordinator handles schema changes and cross-worker queries and stays off the write path.</desc><style>
.flow{stroke-dasharray:10 8;animation:flow 1.2s linear infinite}
.flow.hot{animation-duration:.45s}
.glow{opacity:.45;animation:pulse 1.6s ease-in-out infinite}
@keyframes flow{to{stroke-dashoffset:-18}}
@keyframes pulse{50%{opacity:.75}}
@media (prefers-reduced-motion:reduce){.flow,.glow{animation:none}}
</style><defs>
<pattern id="dots" width="22" height="22" patternUnits="userSpaceOnUse"><circle cx="2" cy="2" r="1.2" fill="#dbe0ec"/></pattern>
<filter id="heat" x="-20%" y="-20%" width="140%" height="140%"><feGaussianBlur stdDeviation="16"/></filter>
<marker id="arrow" viewBox="0 0 10 10" refX="7" refY="5" markerWidth="6" markerHeight="6" orient="auto"><path d="M0,0 L10,5 L0,10 z" fill="#8590b8"/></marker><marker id="arrow-blue" viewBox="0 0 10 10" refX="7" refY="5" markerWidth="6" markerHeight="6" orient="auto"><path d="M0,0 L10,5 L0,10 z" fill="#5b6ee1"/></marker><marker id="arrow-hot" viewBox="0 0 10 10" refX="7" refY="5" markerWidth="6" markerHeight="6" orient="auto"><path d="M0,0 L10,5 L0,10 z" fill="#e5484d"/></marker><marker id="arrow-muted" viewBox="0 0 10 10" refX="7" refY="5" markerWidth="6" markerHeight="6" orient="auto"><path d="M0,0 L10,5 L0,10 z" fill="#9aa3c4"/></marker>
</defs><rect width="1400" height="720" fill="#f4f6fb"/><rect width="1400" height="720" fill="url(#dots)"/><text x="40" y="62" font-size="30" font-weight="700" fill="#1b2445" text-anchor="start">After: PostgreSQL scaled out with Citus</text>
<text x="40" y="96" font-size="17" font-weight="400" fill="#5d6688" text-anchor="start">ThingsBoard sends each device's latest values straight to the worker that owns it, so the load splits four ways</text>
<rect x="40" y="230" width="172" height="380" rx="14" fill="#edf1ff" stroke="#5b6ee1" stroke-width="2"/>
<text x="126.0" y="266" font-size="19" font-weight="700" fill="#1b2445" text-anchor="middle">Devices</text>
<rect x="55.0" y="290" width="38" height="38" rx="9" fill="#ffffff" stroke="#5b6ee1" stroke-width="1.6"/><circle cx="74.0" cy="315.0" r="3" fill="#3446b8"/><path d="M67.0,308.0 A10,10 0 0 1 81.0,308.0" fill="none" stroke="#3446b8" stroke-width="1.8" stroke-linecap="round"/><path d="M62.0,303.0 A17,17 0 0 1 86.0,303.0" fill="none" stroke="#3446b8" stroke-width="1.8" stroke-linecap="round"/>
<rect x="107.0" y="290" width="38" height="38" rx="9" fill="#ffffff" stroke="#5b6ee1" stroke-width="1.6"/><path d="M116.0,315.0 A10,10 0 0 1 136.0,315.0" fill="none" stroke="#3446b8" stroke-width="1.8" stroke-linecap="round"/><path d="M126.0,315.0 L132.0,307.0" fill="none" stroke="#3446b8" stroke-width="1.8" stroke-linecap="round"/><path d="M115.0,320.0 H137.0" fill="none" stroke="#3446b8" stroke-width="1.8" stroke-linecap="round"/>
<rect x="159.0" y="290" width="38" height="38" rx="9" fill="#ffffff" stroke="#5b6ee1" stroke-width="1.6"/><rect x="167.0" y="302.0" width="16" height="14" rx="3" fill="none" stroke="#3446b8" stroke-width="1.8" stroke-linecap="round"/><path d="M183.0,307.0 L189.0,303.0 V315.0 L183.0,311.0" fill="none" stroke="#3446b8" stroke-width="1.8" stroke-linecap="round" stroke-linejoin="round"/>
<rect x="55.0" y="342" width="38" height="38" rx="9" fill="#ffffff" stroke="#5b6ee1" stroke-width="1.6"/><path d="M64.0,367.0 A10,10 0 0 1 84.0,367.0" fill="none" stroke="#3446b8" stroke-width="1.8" stroke-linecap="round"/><path d="M74.0,367.0 L80.0,359.0" fill="none" stroke="#3446b8" stroke-width="1.8" stroke-linecap="round"/><path d="M63.0,372.0 H85.0" fill="none" stroke="#3446b8" stroke-width="1.8" stroke-linecap="round"/>
<rect x="107.0" y="342" width="38" height="38" rx="9" fill="#ffffff" stroke="#5b6ee1" stroke-width="1.6"/><rect x="115.0" y="354.0" width="16" height="14" rx="3" fill="none" stroke="#3446b8" stroke-width="1.8" stroke-linecap="round"/><path d="M131.0,359.0 L137.0,355.0 V367.0 L131.0,363.0" fill="none" stroke="#3446b8" stroke-width="1.8" stroke-linecap="round" stroke-linejoin="round"/>
<rect x="159.0" y="342" width="38" height="38" rx="9" fill="#ffffff" stroke="#5b6ee1" stroke-width="1.6"/><circle cx="178.0" cy="367.0" r="3" fill="#3446b8"/><path d="M171.0,360.0 A10,10 0 0 1 185.0,360.0" fill="none" stroke="#3446b8" stroke-width="1.8" stroke-linecap="round"/><path d="M166.0,355.0 A17,17 0 0 1 190.0,355.0" fill="none" stroke="#3446b8" stroke-width="1.8" stroke-linecap="round"/>
<rect x="55.0" y="394" width="38" height="38" rx="9" fill="#ffffff" stroke="#5b6ee1" stroke-width="1.6"/><rect x="63.0" y="406.0" width="16" height="14" rx="3" fill="none" stroke="#3446b8" stroke-width="1.8" stroke-linecap="round"/><path d="M79.0,411.0 L85.0,407.0 V419.0 L79.0,415.0" fill="none" stroke="#3446b8" stroke-width="1.8" stroke-linecap="round" stroke-linejoin="round"/>
<rect x="107.0" y="394" width="38" height="38" rx="9" fill="#ffffff" stroke="#5b6ee1" stroke-width="1.6"/><circle cx="126.0" cy="419.0" r="3" fill="#3446b8"/><path d="M119.0,412.0 A10,10 0 0 1 133.0,412.0" fill="none" stroke="#3446b8" stroke-width="1.8" stroke-linecap="round"/><path d="M114.0,407.0 A17,17 0 0 1 138.0,407.0" fill="none" stroke="#3446b8" stroke-width="1.8" stroke-linecap="round"/>
<rect x="159.0" y="394" width="38" height="38" rx="9" fill="#ffffff" stroke="#5b6ee1" stroke-width="1.6"/><path d="M168.0,419.0 A10,10 0 0 1 188.0,419.0" fill="none" stroke="#3446b8" stroke-width="1.8" stroke-linecap="round"/><path d="M178.0,419.0 L184.0,411.0" fill="none" stroke="#3446b8" stroke-width="1.8" stroke-linecap="round"/><path d="M167.0,424.0 H189.0" fill="none" stroke="#3446b8" stroke-width="1.8" stroke-linecap="round"/>
<rect x="55.0" y="446" width="38" height="38" rx="9" fill="#ffffff" stroke="#5b6ee1" stroke-width="1.6"/><circle cx="74.0" cy="471.0" r="3" fill="#3446b8"/><path d="M67.0,464.0 A10,10 0 0 1 81.0,464.0" fill="none" stroke="#3446b8" stroke-width="1.8" stroke-linecap="round"/><path d="M62.0,459.0 A17,17 0 0 1 86.0,459.0" fill="none" stroke="#3446b8" stroke-width="1.8" stroke-linecap="round"/>
<rect x="107.0" y="446" width="38" height="38" rx="9" fill="#ffffff" stroke="#5b6ee1" stroke-width="1.6"/><path d="M116.0,471.0 A10,10 0 0 1 136.0,471.0" fill="none" stroke="#3446b8" stroke-width="1.8" stroke-linecap="round"/><path d="M126.0,471.0 L132.0,463.0" fill="none" stroke="#3446b8" stroke-width="1.8" stroke-linecap="round"/><path d="M115.0,476.0 H137.0" fill="none" stroke="#3446b8" stroke-width="1.8" stroke-linecap="round"/>
<rect x="159.0" y="446" width="38" height="38" rx="9" fill="#ffffff" stroke="#5b6ee1" stroke-width="1.6"/><rect x="167.0" y="458.0" width="16" height="14" rx="3" fill="none" stroke="#3446b8" stroke-width="1.8" stroke-linecap="round"/><path d="M183.0,463.0 L189.0,459.0 V471.0 L183.0,467.0" fill="none" stroke="#3446b8" stroke-width="1.8" stroke-linecap="round" stroke-linejoin="round"/>
<text x="126.0" y="558" font-size="20" font-weight="700" fill="#3446b8" text-anchor="middle">5,000,000</text>
<text x="126.0" y="582" font-size="13" font-weight="400" fill="#5d6688" text-anchor="middle">sensors, meters, cameras</text>
<rect x="272" y="270" width="180" height="300" rx="14" fill="#edf1ff" stroke="#5b6ee1" stroke-width="2"/>
<text x="362.0" y="306" font-size="19" font-weight="700" fill="#1b2445" text-anchor="middle">Transports</text>
<rect x="290" y="328" width="144" height="44" rx="22" fill="#ffffff" stroke="#5b6ee1" stroke-width="1.6"/>
<text x="362.0" y="356" font-size="16" font-weight="600" fill="#3446b8" text-anchor="middle">MQTT</text>
<rect x="290" y="386" width="144" height="44" rx="22" fill="#ffffff" stroke="#5b6ee1" stroke-width="1.6"/>
<text x="362.0" y="414" font-size="16" font-weight="600" fill="#3446b8" text-anchor="middle">HTTP</text>
<rect x="290" y="444" width="144" height="44" rx="22" fill="#ffffff" stroke="#5b6ee1" stroke-width="1.6"/>
<text x="362.0" y="472" font-size="16" font-weight="600" fill="#3446b8" text-anchor="middle">CoAP</text>
<rect x="290" y="502" width="144" height="44" rx="22" fill="#ffffff" stroke="#5b6ee1" stroke-width="1.6"/>
<text x="362.0" y="530" font-size="16" font-weight="600" fill="#3446b8" text-anchor="middle">LwM2M</text>
<path d="M218,330 H264" fill="none" stroke="#8590b8" stroke-width="2" stroke-linecap="round" stroke-linejoin="round" marker-end="url(#arrow)"/>
<path d="M218,420 H264" fill="none" stroke="#8590b8" stroke-width="2" stroke-linecap="round" stroke-linejoin="round" marker-end="url(#arrow)"/>
<path d="M218,510 H264" fill="none" stroke="#8590b8" stroke-width="2" stroke-linecap="round" stroke-linejoin="round" marker-end="url(#arrow)"/>
<path d="M458,350 C492,350 480,420 512,420" fill="none" stroke="#8590b8" stroke-width="2" stroke-linecap="round" stroke-linejoin="round" marker-end="url(#arrow)"/>
<path d="M458,440 C492,440 480,455 512,455" fill="none" stroke="#8590b8" stroke-width="2" stroke-linecap="round" stroke-linejoin="round" marker-end="url(#arrow)"/>
<path d="M458,530 C492,530 480,490 512,490" fill="none" stroke="#8590b8" stroke-width="2" stroke-linecap="round" stroke-linejoin="round" marker-end="url(#arrow)"/>
<rect x="536" y="386" width="220" height="170" rx="14" fill="#dfe5fb" stroke="#9aa6e6" stroke-width="2"/>
<rect x="528" y="378" width="220" height="170" rx="14" fill="#e7ecfd" stroke="#8395e5" stroke-width="2"/>
<rect x="520" y="370" width="220" height="170" rx="14" fill="#ffffff" stroke="#5b6ee1" stroke-width="2"/>
<g transform="translate(600.0 390) scale(0.1875) translate(0 -732.36)" fill="#305680"><path d="m151.13 732.36c-28.363 0-54.915 7.9153-77.613 21.537-6.4723-5.2623-14.605-8.1915-23.067-8.1937a8.7661 8.7661 0 0 0 -0.0035 0c-20.154 0.00073-36.679 16.528-36.678 36.682a8.7661 8.7661 0 0 0 0 0.0106c0.0099 8.4147 2.9267 16.483 8.1033 22.927-13.83 22.83-21.87 49.58-21.87 78.17a8.7661 8.7661 0 1 0 17.531 0c0-24.702 6.7193-47.748 18.378-67.574 4.5663 1.9846 9.4727 3.1496 14.519 3.1573a8.7661 8.7661 0 0 0 0.01241 0c20.155 0.00062 36.683-16.527 36.682-36.682a8.7661 8.7661 0 0 0 0 -0.004c-0.0016-4.9994-1.1387-9.8628-3.0828-14.397 19.717-11.484 42.585-18.095 67.085-18.095a8.7661 8.7661 0 1 0 0 -17.531zm-100.69 30.88c5.9129 0.002 11.191 2.5121 14.836 7.0769a8.7661 8.7661 0 0 0 0.1826 0.21451c2.6715 3.3798 4.1326 7.5531 4.1341 11.863-0.0015 10.677-8.468 19.144-19.144 19.148-4.37-0.008-8.6011-1.5088-12-4.2546a8.7661 8.7661 0 0 0 -0.01241 -0.009c-4.514-3.6331-7.1358-9.0979-7.1442-14.893 0.0025-10.677 8.4701-19.144 19.148-19.146z"/><path d="m66.992 835.19c-1.492 1.5583-2.3663 3.7103-2.2576 6.0713 0.0962 2.0447 0.91322 4.0204 2.3372 5.5177 6.8051 6.8559 20.223 20.223 20.223 20.223l11.844-11.83s-12.973-12.961-20.176-20.171c-1.604-1.6325-3.7498-2.3141-6.012-2.3243-2.3583-0.0112-4.4673 0.95389-5.9592 2.5122zm32.147 19.983-36.639 36.639c-3.9751 3.976-3.9751 10.421 0 14.397l18.156 18.156 31.753 31.753 30.478 30.478c3.9758 3.9759 10.422 3.9763 14.398 0l24.791-24.791 37.914-37.914 36.639-36.639c3.9754-3.9764 3.975-10.422-0.00067-14.398l-18.63-18.63-31.75-31.76-30.01-30c-3.976-3.9751-10.421-3.9751-14.397 0l-24.79 24.79-37.91 37.91zm37.911-37.91s-12.973-12.961-20.176-20.171c-1.604-1.6325-3.7498-2.3141-6.012-2.3243-4.7166-0.0226-8.4341 3.8616-8.2169 8.5834 0.0962 2.0447 0.91322 4.0204 2.3372 5.5177 6.8051 6.8559 20.223 20.223 20.223 20.223l11.844-11.83zm69.193 5.2132s12.961-12.973 20.171-20.176c1.6325-1.604 2.3141-3.7498 2.3243-6.012 0.0225-4.7166-3.8616-8.4341-8.5834-8.2169-2.0447 0.0962-4.0204 0.91322-5.5177 2.3372-6.8559 6.8051-20.223 20.223-20.223 20.223l11.83 11.844zm31.753 31.753s12.961-12.973 20.171-20.176c1.6325-1.604 2.314-3.7498 2.3243-6.012 0.0225-4.7166-3.8616-8.4341-8.5834-8.2169-2.0447 0.0962-4.0204 0.91323-5.5177 2.3372-6.8559 6.8051-20.223 20.223-20.223 20.223l11.83 11.844zm-18.009 69.667s12.973 12.961 20.178 20.169c1.604 1.6324 3.7498 2.314 6.012 2.3243 4.7166 0.0225 8.4342-3.8615 8.2169-8.5834l-0.002 0.002c-0.0962-2.0447-0.91415-4.0214-2.3382-5.5186-6.8051-6.8559-20.222-20.222-20.222-20.222l-11.844 11.83zm-37.914 37.914s12.973 12.961 20.178 20.169c1.604 1.6324 3.7498 2.314 6.012 2.3242 4.7166 0.023 8.4342-3.8615 8.2169-8.5834h-0.002c-0.0962-2.0447-0.91323-4.0205-2.3372-5.5177-6.8051-6.8559-20.223-20.223-20.223-20.223l-11.844 11.83zm-69.667-5.6871s-12.961 12.973-20.169 20.178c-1.6324 1.604-2.314 3.7498-2.3243 6.012-0.02251 4.7166 3.8615 8.4342 8.5834 8.2169h-0.0019c2.0447-0.096 4.0204-0.9132 5.5177-2.3373 6.8561-6.8048 20.223-20.223 20.223-20.223l-11.82-11.84zm-31.743-31.74s-12.961 12.973-20.169 20.178c-1.6324 1.604-2.314 3.7498-2.3243 6.012-0.02251 4.7167 3.8615 8.4342 8.5834 8.2169h-0.0019c2.0447-0.0962 4.0204-0.91322 5.5177-2.3372 6.8561-6.8047 20.223-20.223 20.223-20.223l-11.829-11.85zm87.237-90.554c1.6794-1.7064 3.9669-2.6599 6.2971-2.626 1.6628 0.0237 3.253 0.55012 4.5625 1.5097l16.499 12.1c3.2009 2.297 4.1445 6.6589 2.2308 10.312-1.9137 3.6528-6.1234 5.5243-9.9506 4.4227l6.124 23.948c1.1128 4.3517-1.564 8.9677-5.9833 10.317l-44.642 13.631 8.2456 31.883c1.1728 4.3696-1.5017 9.0445-5.9546 10.407s-8.9756-1.1106-10.068-5.5047l-10.282-39.769c-1.1265-4.3556 1.5493-8.9847 5.9759-10.338l44.661-13.637-4.1219-16.118c-2.7634 3.0643-7.2335 3.8084-10.586 1.7615-3.3531-2.0469-4.6144-6.2896-2.9861-10.047l8.1169-19.454c0.43322-1.0376 1.0673-1.9888 1.8624-2.7973z"/><path d="m168.87 1052.4c28.363 0 54.915-7.9155 77.614-21.538 6.4724 5.2624 14.605 8.1917 23.067 8.1939a8.7662 8.7662 0 0 0 0.004 0c20.155-0.0007 36.68-16.528 36.679-36.682a8.7662 8.7662 0 0 0 0 -0.011c-0.01-8.4149-2.9267-16.484-8.1034-22.927 13.825-22.82 21.866-49.572 21.866-78.162a8.7662 8.7662 0 1 0 -17.531 0c0 24.703-6.7194 47.749-18.378 67.575-4.5664-1.9846-9.4728-3.1496-14.519-3.1573a8.7662 8.7662 0 0 0 -0.0124 0c-20.155-0.00062-36.683 16.527-36.682 36.682 0.002 4.9994 1.1387 9.8628 3.0829 14.397-19.717 11.484-42.586 18.095-67.086 18.095a8.7662 8.7662 0 1 0 0 17.531zm100.69-30.875c-5.913 0-11.191-2.5122-14.836-7.0769a8.7662 8.7662 0 0 0 -0.18261 -0.2146c-2.6715-3.3799-4.1327-7.5531-4.1341-11.863 0.002-10.677 8.4681-19.144 19.144-19.148 4.37 0.008 8.6012 1.5088 12 4.2547a8.7662 8.7662 0 0 0 0.0124 0.009c4.5141 3.6332 7.1359 9.098 7.1443 14.893-0.003 10.677-8.4702 19.145-19.148 19.146z"/></g>
<text x="630.0" y="482" font-size="22" font-weight="700" fill="#1b2445" text-anchor="middle">ThingsBoard</text>
<text x="630.0" y="508" font-size="14" font-weight="400" fill="#5d6688" text-anchor="middle">core · rule engine</text>
<rect x="870" y="140" width="490" height="150" rx="14" fill="#edf1ff" stroke="#5b6ee1" stroke-width="2"/>
<g fill="#ffffff" stroke="#5b6ee1" stroke-width="2.7"><path d="M898.72,171.6 V200.4 A17.28,5.76 0 0 0 933.28,200.4 V171.6"/><path d="M898.72,186.0 A17.28,5.76 0 0 0 933.28,186.0" fill="none"/><ellipse cx="916.0" cy="171.6" rx="17.28" ry="5.76"/></g>
<text x="956" y="188" font-size="22" font-weight="700" fill="#1b2445" text-anchor="start">Cassandra</text>
<text x="956" y="212" font-size="14" font-weight="400" fill="#5d6688" text-anchor="start">telemetry history · every message appends a new row</text>
<text x="892" y="252" font-size="14" font-weight="600" fill="#5d6688" text-anchor="start">Write load</text>
<text x="1338" y="252" font-size="14" font-weight="600" fill="#3446b8" text-anchor="end">spread by partition key</text>
<rect x="892" y="262" width="446" height="10" rx="5.0" fill="#e2e6f1"/><rect x="892" y="262" width="133.8" height="10" rx="5.0" fill="#5b8def"/>
<path d="M670,364 V230 Q670,215 685,215 H862" fill="none" stroke="#5b6ee1" stroke-width="2.4" stroke-linecap="round" stroke-linejoin="round" class="flow" marker-end="url(#arrow-blue)"/>
<text x="684" y="204" font-size="14" font-weight="600" fill="#3446b8" text-anchor="start">insert</text>
<rect x="1110" y="40" width="16" height="16" rx="4" fill="#edf1ff" stroke="#5b6ee1" stroke-width="2"/>
<text x="1136" y="53" font-size="14" font-weight="400" fill="#5d6688" text-anchor="start">normal load</text>
<rect x="1240" y="40" width="16" height="16" rx="4" fill="#fff0eb" stroke="#e5484d" stroke-width="2"/>
<text x="1266" y="53" font-size="14" font-weight="400" fill="#5d6688" text-anchor="start">saturated</text>
<rect x="870" y="330" width="490" height="360" rx="14" fill="#f8f9ff" stroke="#5b6ee1" stroke-width="2" stroke-dasharray="8 6"/>
<rect x="886" y="317" width="112" height="26" rx="6" fill="#5b6ee1"/>
<text x="942" y="335" font-size="14" font-weight="700" fill="#ffffff" text-anchor="middle">Citus cluster</text>
<rect x="886" y="358" width="458" height="50" rx="10" fill="#edf1ff" stroke="#5b6ee1" stroke-width="2"/>
<g fill="#ffffff" stroke="#5b6ee1" stroke-width="1.8"><path d="M902.48,373.4 V392.6 A11.52,3.84 0 0 0 925.52,392.6 V373.4"/><path d="M902.48,383.0 A11.52,3.84 0 0 0 925.52,383.0" fill="none"/><ellipse cx="914.0" cy="373.4" rx="11.52" ry="3.84"/></g>
<text x="940" y="380" font-size="17" font-weight="700" fill="#1b2445" text-anchor="start">Coordinator</text>
<text x="940" y="398" font-size="13" font-weight="400" fill="#5d6688" text-anchor="start">schema changes, cross-worker queries · off the write path</text>
<rect x="886" y="426" width="458" height="56" rx="10" fill="#edf1ff" stroke="#5b6ee1" stroke-width="2"/>
<g fill="#ffffff" stroke="#5b6ee1" stroke-width="1.9"><path d="M902.76,443.8 V464.2 A12.24,4.08 0 0 0 927.24,464.2 V443.8"/><path d="M902.76,454.0 A12.24,4.08 0 0 0 927.24,454.0" fill="none"/><ellipse cx="915.0" cy="443.8" rx="12.24" ry="4.08"/></g>
<text x="942" y="451" font-size="17" font-weight="700" fill="#1b2445" text-anchor="start">Worker 1</text>
<text x="942" y="470" font-size="13" font-weight="400" fill="#5d6688" text-anchor="start">shard set 1</text>
<rect x="1052" y="436" width="16" height="16" rx="3.5" fill="#76a8f3"/><rect x="1072" y="436" width="16" height="16" rx="3.5" fill="#76a8f3"/><rect x="1092" y="436" width="16" height="16" rx="3.5" fill="#9fd3e3"/><rect x="1112" y="436" width="16" height="16" rx="3.5" fill="#76a8f3"/><rect x="1132" y="436" width="16" height="16" rx="3.5" fill="#76a8f3"/><rect x="1152" y="436" width="16" height="16" rx="3.5" fill="#76a8f3"/><rect x="1172" y="436" width="16" height="16" rx="3.5" fill="#a9c8fa"/><rect x="1192" y="436" width="16" height="16" rx="3.5" fill="#76a8f3"/><rect x="1212" y="436" width="16" height="16" rx="3.5" fill="#7cc6dc"/><rect x="1232" y="436" width="16" height="16" rx="3.5" fill="#7cc6dc"/><rect x="1052" y="456" width="16" height="16" rx="3.5" fill="#a9c8fa"/><rect x="1072" y="456" width="16" height="16" rx="3.5" fill="#8db8f7"/><rect x="1092" y="456" width="16" height="16" rx="3.5" fill="#a9c8fa"/><rect x="1112" y="456" width="16" height="16" rx="3.5" fill="#9fd3e3"/><rect x="1132" y="456" width="16" height="16" rx="3.5" fill="#7cc6dc"/><rect x="1152" y="456" width="16" height="16" rx="3.5" fill="#a9c8fa"/><rect x="1172" y="456" width="16" height="16" rx="3.5" fill="#9fd3e3"/><rect x="1192" y="456" width="16" height="16" rx="3.5" fill="#9fd3e3"/><rect x="1212" y="456" width="16" height="16" rx="3.5" fill="#7cc6dc"/><rect x="1232" y="456" width="16" height="16" rx="3.5" fill="#7cc6dc"/>
<rect x="1266" y="449" width="62" height="10" rx="5.0" fill="#e2e6f1"/><rect x="1266" y="449" width="19.8" height="10" rx="5.0" fill="#5b8def"/>
<path d="M746,465 C810,465 816,454 878,454" fill="none" stroke="#5b6ee1" stroke-width="2.4" stroke-linecap="round" stroke-linejoin="round" class="flow" marker-end="url(#arrow-blue)"/>
<rect x="886" y="492" width="458" height="56" rx="10" fill="#edf1ff" stroke="#5b6ee1" stroke-width="2"/>
<g fill="#ffffff" stroke="#5b6ee1" stroke-width="1.9"><path d="M902.76,509.8 V530.2 A12.24,4.08 0 0 0 927.24,530.2 V509.8"/><path d="M902.76,520.0 A12.24,4.08 0 0 0 927.24,520.0" fill="none"/><ellipse cx="915.0" cy="509.8" rx="12.24" ry="4.08"/></g>
<text x="942" y="517" font-size="17" font-weight="700" fill="#1b2445" text-anchor="start">Worker 2</text>
<text x="942" y="536" font-size="13" font-weight="400" fill="#5d6688" text-anchor="start">shard set 2</text>
<rect x="1052" y="502" width="16" height="16" rx="3.5" fill="#76a8f3"/><rect x="1072" y="502" width="16" height="16" rx="3.5" fill="#7cc6dc"/><rect x="1092" y="502" width="16" height="16" rx="3.5" fill="#7cc6dc"/><rect x="1112" y="502" width="16" height="16" rx="3.5" fill="#a9c8fa"/><rect x="1132" y="502" width="16" height="16" rx="3.5" fill="#a9c8fa"/><rect x="1152" y="502" width="16" height="16" rx="3.5" fill="#8db8f7"/><rect x="1172" y="502" width="16" height="16" rx="3.5" fill="#8db8f7"/><rect x="1192" y="502" width="16" height="16" rx="3.5" fill="#9fd3e3"/><rect x="1212" y="502" width="16" height="16" rx="3.5" fill="#7cc6dc"/><rect x="1232" y="502" width="16" height="16" rx="3.5" fill="#7cc6dc"/><rect x="1052" y="522" width="16" height="16" rx="3.5" fill="#76a8f3"/><rect x="1072" y="522" width="16" height="16" rx="3.5" fill="#7cc6dc"/><rect x="1092" y="522" width="16" height="16" rx="3.5" fill="#a9c8fa"/><rect x="1112" y="522" width="16" height="16" rx="3.5" fill="#76a8f3"/><rect x="1132" y="522" width="16" height="16" rx="3.5" fill="#a9c8fa"/><rect x="1152" y="522" width="16" height="16" rx="3.5" fill="#9fd3e3"/><rect x="1172" y="522" width="16" height="16" rx="3.5" fill="#a9c8fa"/><rect x="1192" y="522" width="16" height="16" rx="3.5" fill="#9fd3e3"/><rect x="1212" y="522" width="16" height="16" rx="3.5" fill="#a9c8fa"/><rect x="1232" y="522" width="16" height="16" rx="3.5" fill="#7cc6dc"/>
<rect x="1266" y="515" width="62" height="10" rx="5.0" fill="#e2e6f1"/><rect x="1266" y="515" width="17.4" height="10" rx="5.0" fill="#5b8def"/>
<path d="M746,465 C810,465 816,520 878,520" fill="none" stroke="#5b6ee1" stroke-width="2.4" stroke-linecap="round" stroke-linejoin="round" class="flow" marker-end="url(#arrow-blue)"/>
<rect x="886" y="558" width="458" height="56" rx="10" fill="#edf1ff" stroke="#5b6ee1" stroke-width="2"/>
<g fill="#ffffff" stroke="#5b6ee1" stroke-width="1.9"><path d="M902.76,575.8 V596.2 A12.24,4.08 0 0 0 927.24,596.2 V575.8"/><path d="M902.76,586.0 A12.24,4.08 0 0 0 927.24,586.0" fill="none"/><ellipse cx="915.0" cy="575.8" rx="12.24" ry="4.08"/></g>
<text x="942" y="583" font-size="17" font-weight="700" fill="#1b2445" text-anchor="start">Worker 3</text>
<text x="942" y="602" font-size="13" font-weight="400" fill="#5d6688" text-anchor="start">shard set 3</text>
<rect x="1052" y="568" width="16" height="16" rx="3.5" fill="#8db8f7"/><rect x="1072" y="568" width="16" height="16" rx="3.5" fill="#7cc6dc"/><rect x="1092" y="568" width="16" height="16" rx="3.5" fill="#7cc6dc"/><rect x="1112" y="568" width="16" height="16" rx="3.5" fill="#9fd3e3"/><rect x="1132" y="568" width="16" height="16" rx="3.5" fill="#a9c8fa"/><rect x="1152" y="568" width="16" height="16" rx="3.5" fill="#8db8f7"/><rect x="1172" y="568" width="16" height="16" rx="3.5" fill="#a9c8fa"/><rect x="1192" y="568" width="16" height="16" rx="3.5" fill="#8db8f7"/><rect x="1212" y="568" width="16" height="16" rx="3.5" fill="#7cc6dc"/><rect x="1232" y="568" width="16" height="16" rx="3.5" fill="#a9c8fa"/><rect x="1052" y="588" width="16" height="16" rx="3.5" fill="#76a8f3"/><rect x="1072" y="588" width="16" height="16" rx="3.5" fill="#8db8f7"/><rect x="1092" y="588" width="16" height="16" rx="3.5" fill="#8db8f7"/><rect x="1112" y="588" width="16" height="16" rx="3.5" fill="#76a8f3"/><rect x="1132" y="588" width="16" height="16" rx="3.5" fill="#9fd3e3"/><rect x="1152" y="588" width="16" height="16" rx="3.5" fill="#7cc6dc"/><rect x="1172" y="588" width="16" height="16" rx="3.5" fill="#a9c8fa"/><rect x="1192" y="588" width="16" height="16" rx="3.5" fill="#8db8f7"/><rect x="1212" y="588" width="16" height="16" rx="3.5" fill="#a9c8fa"/><rect x="1232" y="588" width="16" height="16" rx="3.5" fill="#9fd3e3"/>
<rect x="1266" y="581" width="62" height="10" rx="5.0" fill="#e2e6f1"/><rect x="1266" y="581" width="21.7" height="10" rx="5.0" fill="#5b8def"/>
<path d="M746,465 C810,465 816,586 878,586" fill="none" stroke="#5b6ee1" stroke-width="2.4" stroke-linecap="round" stroke-linejoin="round" class="flow" marker-end="url(#arrow-blue)"/>
<rect x="886" y="624" width="458" height="56" rx="10" fill="#edf1ff" stroke="#5b6ee1" stroke-width="2"/>
<g fill="#ffffff" stroke="#5b6ee1" stroke-width="1.9"><path d="M902.76,641.8 V662.2 A12.24,4.08 0 0 0 927.24,662.2 V641.8"/><path d="M902.76,652.0 A12.24,4.08 0 0 0 927.24,652.0" fill="none"/><ellipse cx="915.0" cy="641.8" rx="12.24" ry="4.08"/></g>
<text x="942" y="649" font-size="17" font-weight="700" fill="#1b2445" text-anchor="start">Worker 4</text>
<text x="942" y="668" font-size="13" font-weight="400" fill="#5d6688" text-anchor="start">shard set 4</text>
<rect x="1052" y="634" width="16" height="16" rx="3.5" fill="#a9c8fa"/><rect x="1072" y="634" width="16" height="16" rx="3.5" fill="#7cc6dc"/><rect x="1092" y="634" width="16" height="16" rx="3.5" fill="#7cc6dc"/><rect x="1112" y="634" width="16" height="16" rx="3.5" fill="#9fd3e3"/><rect x="1132" y="634" width="16" height="16" rx="3.5" fill="#8db8f7"/><rect x="1152" y="634" width="16" height="16" rx="3.5" fill="#8db8f7"/><rect x="1172" y="634" width="16" height="16" rx="3.5" fill="#7cc6dc"/><rect x="1192" y="634" width="16" height="16" rx="3.5" fill="#7cc6dc"/><rect x="1212" y="634" width="16" height="16" rx="3.5" fill="#8db8f7"/><rect x="1232" y="634" width="16" height="16" rx="3.5" fill="#7cc6dc"/><rect x="1052" y="654" width="16" height="16" rx="3.5" fill="#8db8f7"/><rect x="1072" y="654" width="16" height="16" rx="3.5" fill="#7cc6dc"/><rect x="1092" y="654" width="16" height="16" rx="3.5" fill="#a9c8fa"/><rect x="1112" y="654" width="16" height="16" rx="3.5" fill="#8db8f7"/><rect x="1132" y="654" width="16" height="16" rx="3.5" fill="#9fd3e3"/><rect x="1152" y="654" width="16" height="16" rx="3.5" fill="#8db8f7"/><rect x="1172" y="654" width="16" height="16" rx="3.5" fill="#8db8f7"/><rect x="1192" y="654" width="16" height="16" rx="3.5" fill="#9fd3e3"/><rect x="1212" y="654" width="16" height="16" rx="3.5" fill="#7cc6dc"/><rect x="1232" y="654" width="16" height="16" rx="3.5" fill="#a9c8fa"/>
<rect x="1266" y="647" width="62" height="10" rx="5.0" fill="#e2e6f1"/><rect x="1266" y="647" width="18.6" height="10" rx="5.0" fill="#5b8def"/>
<path d="M746,465 C810,465 816,652 878,652" fill="none" stroke="#5b6ee1" stroke-width="2.4" stroke-linecap="round" stroke-linejoin="round" class="flow" marker-end="url(#arrow-blue)"/>
<text x="802" y="440" font-size="14" font-weight="600" fill="#3446b8" text-anchor="middle">update in place</text>
<path d="M746,390 C800,390 826,383 878,383" fill="none" stroke="#9aa3c4" stroke-width="1.8" stroke-linecap="round" stroke-linejoin="round" stroke-dasharray="6 6" marker-end="url(#arrow-muted)"/></svg>
